<svg xmlns="http://www.w3.org/2000/svg" xmlns:xlink="http://www.w3.org/1999/xlink" viewBox="0 0 361.79 315.29" xmlns:v="https://vecta.io/nano"><defs><linearGradient id="A" x1="294.45" y1="190.99" x2="294.45" y2="450.65" gradientUnits="userSpaceOnUse"><stop offset="0" stop-color="#005757"/><stop offset=".02" stop-color="#00585a"/><stop offset=".15" stop-color="#005c66"/><stop offset=".28" stop-color="#005d6a"/><stop offset=".5" stop-color="#005d6a"/><stop offset=".6" stop-color="#006773"/><stop offset=".75" stop-color="#006f7b"/><stop offset="1" stop-color="#00727d"/></linearGradient><linearGradient id="B" x1="295.61" y1="140.03" x2="295.61" y2="455.32" xlink:href="#A"/></defs><path d="M358.43 205.37c-7.49 19.93-22.61 30.19-43.08 32.59-15.73 1.84-19.93-4.05-17.45-19.61 3.45-21.65 8.2-43.51 8.22-65.27.06-67.55-56.61-122.8-123.39-122.33-72.34.52-127.7 54-130.28 124.2l12.8 59c1.65 7.36 5.47 14-.34 22-2.07 2.83-.35 10.47 2.13 14.29 17 26.06 40.3 43.79 71.75 48.16 8.39 1.18 17.33-2.07 26-2.05 4.66 0 10.24 1.6 13.57 4.55 1.85 1.63 1.41 9.55-.62 11.07-3.56 2.62-9.31 3.7-13.86 3.19-8.13-.93-16-4.33-24.09-5.34-39.19-4.88-67-26.37-86.24-59.5-4.89-8.41-10.32-12.72-19.66-15.69-36-11.41-45.71-56.06-17.57-81.48 7.78-7 11.07-14.08 12.63-23.95C40.39 57.4 101.29.68 180.44-.03c78-.65 139 51.68 152.38 129.24 1.85 10.79 5.81 18.18 13.55 25.62 14.42 13.85 19.4 31 12.06 50.54z" fill="#002424"/><g transform="translate(-114.71 -140.03)"><path d="M402.65,298c-1.3,47.49-16.9,89.6-45.16,127.14-6.64,8.82-15.94,15.63-26.31,25.56-2.39-9-3.39-14.18-5.13-19.1-8.62-24.23-29.32-30.71-55.12-30.71-28.36,0-51.9-4.15-64.76-30.64-16-33.09-27-67.28-14.57-104.72a109.09,109.09,0,0,1,120.53-73.17C372.53,201.65,403.79,255.67,402.65,298Z" fill="url(#A)"/><path d="M473.14 345.4c-7.49 19.93-22.61 30.19-43.08 32.59-15.73 1.84-19.93-4.05-17.45-19.61 3.45-21.65 8.2-43.51 8.22-65.27.06-67.55-56.61-122.8-123.39-122.33-72.34.52-127.7 54-130.28 124.2l12.8 59c1.65 7.36 5.47 14-.34 22-2.07 2.83-.35 10.47 2.13 14.29 17 26.06 40.3 43.79 71.75 48.16 8.39 1.18 17.33-2.07 26-2.05 4.66 0 10.24 1.6 13.57 4.55 1.85 1.63 1.41 9.55-.62 11.07-3.56 2.62-9.31 3.7-13.86 3.19-8.13-.93-16-4.33-24.09-5.34-39.19-4.88-67-26.37-86.24-59.5-4.89-8.41-10.32-12.72-19.66-15.69-36-11.41-45.71-56.06-17.57-81.48 7.78-7 11.07-14.08 12.63-23.95C155.1 197.43 216 140.71 295.15 140c78-.65 139 51.68 152.38 129.24 1.85 10.79 5.81 18.18 13.55 25.62 14.42 13.85 19.4 31 12.06 50.54z" fill="url(#B)"/></g></svg>