<svg xmlns="http://www.w3.org/2000/svg" viewBox="0 0 16.97 16.97"><defs><style>.cls-1{fill:#005c22;}</style></defs><g id="Layer_2" data-name="Layer 2"><g id="Layer_1-2" data-name="Layer 1"><path class="cls-1" d="M16.59,10H.39c-.29,0-.39.1-.39.39v2.85c0,.29.1.39.39.39H16.58a.38.38,0,0,0,.39-.21V10.21A.39.39,0,0,0,16.59,10ZM3,12.59a.31.31,0,0,1-.45.06l-.41-.27c0,.12,0,.22,0,.31a.29.29,0,0,1-.31.33c-.17,0-.28-.12-.29-.33v-.31l-.39.26a.32.32,0,0,1-.47-.05c-.1-.16-.05-.32.13-.45l.49-.32-.49-.33C.6,11.36.56,11.19.67,11A.31.31,0,0,1,1.12,11l.4.27v-.33a.3.3,0,0,1,.3-.31.29.29,0,0,1,.3.3c0,.1,0,.2,0,.34L2.5,11c.2-.13.38-.11.48.05s0,.32-.15.45-.29.21-.46.32c.18.11.34.22.49.33A.31.31,0,0,1,3,12.59Zm3.34,0c-.11.16-.28.18-.48.05l-.38-.26v.3c0,.22-.12.34-.31.35s-.29-.13-.3-.34v-.3l-.39.25c-.19.12-.36.1-.46-.05a.3.3,0,0,1,.12-.45l.49-.32-.49-.33A.31.31,0,0,1,4,11.05.3.3,0,0,1,4.45,11c.13.07.25.16.39.25,0-.26-.08-.63.32-.62s.27.36.31.62l.4-.26a.3.3,0,1,1,.34.5l-.51.34c.17.11.33.21.48.32A.31.31,0,0,1,6.32,12.59Zm3.21-.44a.31.31,0,0,1,.12.44.3.3,0,0,1-.45.06l-.4-.26c0,.26.09.63-.32.62s-.26-.36-.31-.62l-.39.26a.31.31,0,0,1-.45-.06.31.31,0,0,1,.12-.45l.45-.3,0,0-.47-.32A.31.31,0,1,1,7.79,11l.4.27c0-.13,0-.23,0-.33a.29.29,0,0,1,.29-.31.3.3,0,0,1,.31.3v.34L9.21,11a.3.3,0,0,1,.41,0,.31.31,0,0,1-.06.46L9,11.82Zm3.45.44a.3.3,0,0,1-.45.06l-.41-.26a2.8,2.8,0,0,1,0,.29.3.3,0,0,1-.3.34c-.18,0-.3-.12-.3-.33a3,3,0,0,1,0-.3l-.39.25a.32.32,0,0,1-.47-.05.31.31,0,0,1,.13-.45c.15-.11.31-.21.48-.32l-.48-.33c-.19-.13-.23-.3-.13-.45a.32.32,0,0,1,.46-.06l.38.26c.05-.26-.08-.63.33-.62s.27.36.3.62l.39-.25A.31.31,0,0,1,13,11a.33.33,0,0,1-.13.46l-.48.32.49.33A.31.31,0,0,1,13,12.59ZM16,13H14.28c-.21,0-.34-.12-.33-.31a.28.28,0,0,1,.32-.29H16a.29.29,0,0,1,.33.3A.31.31,0,0,1,16,13Z"/><path class="cls-1" d="M13,4.43V6.05h-1.2c0-.06,0-.12,0-.19,0-.53,0-1.07,0-1.6a3.32,3.32,0,0,0-6.6-.18,13.41,13.41,0,0,0,0,1.68v.29H4S4,6,4,6a11.15,11.15,0,0,1,.13-2.58A4.56,4.56,0,0,1,8,0l.14,0h.73c.36.08.72.13,1.06.23A4.54,4.54,0,0,1,13,4.43Z"/><path class="cls-1" d="M14.55,14.26c0,.63,0,1.24,0,1.85a.89.89,0,0,1-.95.86H3.38a.91.91,0,0,1-.95-1c0-.58,0-1.16,0-1.75Z"/><path class="cls-1" d="M13.5,6.66H3.3a.89.89,0,0,0-.87.84c0,.61,0,1.23,0,1.87H14.55V7.7A.93.93,0,0,0,13.5,6.66ZM4.22,7.88H3.64v.56a.3.3,0,0,1-.3.34c-.18,0-.3-.12-.31-.33V7.6a.31.31,0,0,1,.33-.33h.86c.21,0,.33.13.32.31A.3.3,0,0,1,4.22,7.88Z"/></g></g></svg>