<svg xmlns="http://www.w3.org/2000/svg" viewBox="0 0 14.28 14.27"><defs><style>.cls-1{fill:#fff;}</style></defs><g id="Layer_2" data-name="Layer 2"><g id="Layer_1-2" data-name="Layer 1"><path class="cls-1" d="M13.06,8.69a.29.29,0,0,1,.08-.11,5.21,5.21,0,0,0,1-4.28A5.3,5.3,0,0,0,3.68,5.37c0,.2.11.32.28.32s.27-.12.28-.33,0-.62.08-.92a4.74,4.74,0,1,1,9.17,2.3,4.36,4.36,0,0,1-.89,1.6s-.09.08-.11.07A5.27,5.27,0,0,1,12,8.22a.71.71,0,0,1,.07-.09,4.11,4.11,0,0,0,1-3.68,7.36,7.36,0,0,0-.34-1,.28.28,0,0,0-.53.07.6.6,0,0,0,.06.23,3.56,3.56,0,0,1,.12,2.79A3.72,3.72,0,0,1,11.44,8a2.6,2.6,0,0,0-1.09-1.58A1.92,1.92,0,0,0,10.48,6a7.75,7.75,0,0,0,0-1.18,1.54,1.54,0,0,0-3-.18,2.91,2.91,0,0,0,.13,1.77A2.53,2.53,0,0,0,6.52,8l-.07-.06a3.61,3.61,0,0,1,.16-5.33A3.53,3.53,0,0,1,10.53,2c.21.09.36.06.44-.1s0-.31-.2-.4A4.18,4.18,0,1,0,8.18,9.4l.49.07-.23.43c0,.07-.08.1-.16.08A4.74,4.74,0,0,1,4.9,7.71a.29.29,0,0,0-.41-.14A.29.29,0,0,0,4.43,8c.08.13.16.27.26.41l-.42.41a.18.18,0,0,1-.12,0,.87.87,0,0,0-1,.26L.43,11.87a1.48,1.48,0,0,0-.43.62v.31a1.35,1.35,0,0,0,.41.61c.16.14.31.3.45.45a1.28,1.28,0,0,0,.62.41h.31a1.42,1.42,0,0,0,.62-.44l2.75-2.75a.88.88,0,0,0,.27-1,.14.14,0,0,1,0-.11l.42-.43a5.37,5.37,0,0,0,2.34,1c0,.11,0,.21-.05.32a3.08,3.08,0,0,0,2.68,3.39l.09,0h.56l.27,0A3.06,3.06,0,0,0,13.61,9.3C13.43,9.09,13.24,8.89,13.06,8.69Zm-8.24,2-3,3a.28.28,0,0,1-.44,0l-.74-.74a.28.28,0,0,1,0-.44l3-3a2.14,2.14,0,0,1,.22-.13,2,2,0,0,1,.21.12c.26.25.51.5.76.76A.29.29,0,0,1,4.82,10.64Zm.23-1-.37-.37.37-.36.36.37ZM8,4.92A1,1,0,0,1,9,4a1,1,0,0,1,1,.89,4,4,0,0,1,0,.85,1,1,0,0,1-1,.89,1,1,0,0,1-.94-1V5.31C8,5.18,8,5.05,8,4.92ZM7.11,8.39A.17.17,0,0,1,7,8.27a1.92,1.92,0,0,1,.84-1.4.15.15,0,0,1,.2,0,1.56,1.56,0,0,0,1.81,0s.11,0,.14,0a1.84,1.84,0,0,1,.86,1.3,3.15,3.15,0,0,0-1.68.73.2.2,0,0,1-.11,0A3.42,3.42,0,0,1,7.11,8.39Zm4.09,5.33a2.51,2.51,0,1,1,2.52-2.51A2.53,2.53,0,0,1,11.2,13.72Z"/><path class="cls-1" d="M12,2.54a.29.29,0,0,1-.28.27.29.29,0,0,1-.28-.28.29.29,0,0,1,.28-.28A.29.29,0,0,1,12,2.54Z"/><path class="cls-1" d="M4.43,6.66a.3.3,0,0,1-.28.28.29.29,0,0,1-.28-.28.27.27,0,0,1,.27-.28A.29.29,0,0,1,4.43,6.66Z"/><path class="cls-1" d="M13.06,10.33a.83.83,0,0,0-1.39-.41c-.26.25-.51.52-.79.8l-.12-.14a.83.83,0,0,0-1.19,1.16q.36.39.75.75a.81.81,0,0,0,1.14,0c.48-.46.94-.92,1.4-1.39A.8.8,0,0,0,13.06,10.33Zm-.64.42-1.31,1.31a.28.28,0,0,1-.44,0L10,11.38a.28.28,0,1,1,.39-.4l.23.23c.22.23.33.23.56,0l.87-.86a.27.27,0,0,1,.32-.08.3.3,0,0,1,.17.31S12.48,10.69,12.42,10.75Z"/></g></g></svg>