<svg width="150" height="150" xmlns="http://www.w3.org/2000/svg" fill="none">
 <g>
  <title>Layer 1</title>
  <path d="m121.014,67.05737c8.942,-5.8284 14.865,-15.9141 14.865,-27.3605c0,-17.9958 -14.64,-32.63625 -32.636,-32.63625c-12.0462,0 -22.5885,6.56085 -28.243,16.29635c-5.6545,-9.7355 -16.1957,-16.29635 -28.2417,-16.29635c-17.9959,0 -32.6374,14.64045 -32.6374,32.63625c0,11.4464 5.9234,21.5321 14.8647,27.3605c-16.9933,7.0096 -28.9856,23.7523 -28.9856,43.246l0,16.474c0,8.913 7.25098,16.162 16.1625,16.162l117.6755,0c8.912,0 16.162,-7.249 16.162,-16.161l0,-16.475c0,-19.4937 -11.992,-36.2364 -28.986,-43.246zm-17.771,-51.2077c13.149,0 23.847,10.6979 23.847,23.8472c0,13.1504 -10.698,23.8484 -23.847,23.8484c-13.1505,0 -23.8485,-10.698 -23.8485,-23.8484c0,-13.1493 10.698,-23.8472 23.8485,-23.8472zm-28.259,57.2022c-3.1906,-2.4239 -6.6994,-4.4461 -10.4531,-5.9945c4.2927,-2.798 7.8896,-6.578 10.4691,-11.0183c2.5784,4.438 6.1729,8.2157 10.4622,11.0138c-3.7182,1.5289 -7.2407,3.5408 -10.4782,5.999zm-52.0741,-33.355c0,-13.1493 10.698,-23.8472 23.8484,-23.8472c13.1492,0 23.8472,10.6979 23.8472,23.8472c0,13.1504 -10.698,23.8484 -23.8472,23.8484c-13.1504,0 -23.8484,-10.698 -23.8484,-23.8484zm49.7361,94.4535l-56.4835,0c-4.0661,0 -7.37344,-3.307 -7.37344,-7.372l0,-16.475c0,-20.9368 17.03334,-37.9691 37.96924,-37.9691c20.9358,0 37.9692,17.0334 37.9692,37.9691l0,16.475c0,4.065 -3.3085,7.372 -7.3735,7.372l-4.708,0zm68.565,-7.372c0,4.065 -3.307,7.372 -7.373,7.372l-42.109,0c1.1398,-2.212 1.7875,-4.717 1.7875,-7.372l0,-16.475c0,-11.9681 -4.5227,-22.8995 -11.9442,-31.1782c6.3286,-4.4036 13.8714,-6.7909 21.6707,-6.7909c20.936,0 37.968,17.0323 37.968,37.9691l0,16.475z" fill="#009688" id="svg_1"/>
 </g>

</svg>